# xmcd CD database file
#
# Track frame offsets:
#	187
#	13639
#	24689
#	36642
#	48292
#	59027
#	73189
#	87732
#	107682
#	127912
#	142472
#
# Disc length: 2074 seconds
#
# Revision: 0
# Processed by: cddbd v1.4PL0 Copyright (c) Steve Scherf et al.
# Submitted via: CDex 1.50beta10
#
DISCID=ac08180b
DTITLE=Hank Jones - Happenings
DYEAR=1966
DGENRE=Jazz
TTITLE0=Broadwalk samba
TTITLE1=Winchester cathedral
TTITLE2=Mas que nada
TTITLE3=Lullaby of jazzland
TTITLE4=Jazztime, U.S.A.
TTITLE5=Cul-de-sac
TTITLE6=Happenings
TTITLE7=Lou's good dues blues
TTITLE8=Fugue tone
TTITLE9=Spy with a cold nose
TTITLE10=Funky but blues
EXTD=YEAR: 1966
EXTT0=
EXTT1=
EXTT2=
EXTT3=
EXTT4=
EXTT5=
EXTT6=
EXTT7=
EXTT8=
EXTT9=
EXTT10=
PLAYORDER=
